<svg  viewBox="0 0 34 35" fill="none" xmlns="http://www.w3.org/2000/svg">
<path d="M31.877 17.3947C31.877 16.1671 31.776 15.2713 31.5574 14.3423H17.3406V19.883H25.6855C25.5173 21.26 24.6088 23.3336 22.5898 24.727L22.5615 24.9125L27.0566 28.3461L27.368 28.3767C30.2282 25.7722 31.877 21.9401 31.877 17.3947Z" fill="#4285F4"/>
<path d="M17.3395 31.9933C21.4278 31.9933 24.86 30.6661 27.3669 28.3769L22.5887 24.7271C21.3101 25.6064 19.5939 26.2202 17.3395 26.2202C13.3353 26.2202 9.93673 23.6157 8.72524 20.0159L8.54767 20.0307L3.87363 23.5974L3.8125 23.765C6.30251 28.6422 11.4172 31.9933 17.3395 31.9933Z" fill="#34A853"/>
<path d="M8.72612 20.016C8.40646 19.087 8.22146 18.0916 8.22146 17.0631C8.22146 16.0345 8.40646 15.0392 8.7093 14.1102L8.70083 13.9124L3.96821 10.2884L3.81336 10.361C2.78711 12.3849 2.19824 14.6577 2.19824 17.0631C2.19824 19.4685 2.78711 21.7411 3.81336 23.765L8.72612 20.016Z" fill="#FBBC05"/>
<path d="M17.3396 7.90588C20.1829 7.90588 22.1008 9.11689 23.1945 10.1289L27.4679 6.01476C24.8434 3.60934 21.4279 2.1329 17.3396 2.1329C11.4172 2.1329 6.30252 5.48388 3.8125 10.3611L8.70845 14.1102C9.93676 10.5104 13.3353 7.90588 17.3396 7.90588Z" fill="#EB4335"/>
</svg>
